<?xml version="1.0" standalone="no"?>
<!DOCTYPE svg PUBLIC "-//W3C//DTD SVG 20010904//EN"
 "http://www.w3.org/TR/2001/REC-SVG-20010904/DTD/svg10.dtd">
<svg version="1.0" xmlns="http://www.w3.org/2000/svg"
 width="2500.000000pt" height="2500.000000pt" viewBox="0 0 2500.000000 2500.000000"
 preserveAspectRatio="xMidYMid meet">

<g transform="translate(0.000000,2500.000000) scale(0.100000,-0.100000)"
fill="#000000" stroke="none">
<path d="M8315 19420 c-96 -8 -201 -32 -247 -56 -35 -18 -74 -71 -145 -197
-155 -277 -250 -578 -310 -982 -15 -98 -18 -186 -18 -480 0 -388 12 -528 70
-809 l24 -119 -50 -56 c-134 -149 -284 -424 -414 -760 -37 -95 -76 -182 -86
-192 -41 -41 -88 -38 -322 24 -200 53 -348 50 -371 -8 -11 -28 -7 -75 9 -105
33 -64 201 -118 523 -170 60 -10 72 -15 68 -28 -20 -65 -39 -308 -45 -582 -8
-356 -9 -360 -84 -404 -23 -14 -81 -39 -128 -56 -179 -65 -249 -122 -249 -202
0 -32 7 -47 34 -74 30 -30 40 -34 85 -34 61 0 149 32 280 100 51 28 97 50 100
50 4 0 12 -26 20 -57 96 -419 396 -912 833 -1369 49 -50 88 -94 88 -97 0 -3
-34 -53 -75 -110 -307 -428 -512 -949 -532 -1347 -5 -110 -8 -122 -63 -265
-158 -412 -253 -799 -295 -1207 -20 -195 -20 -575 0 -761 14 -122 56 -362 71
-401 3 -7 -20 -32 -50 -55 -41 -30 -73 -45 -123 -56 -433 -92 -699 -396 -729
-832 -25 -370 139 -849 411 -1198 254 -326 656 -569 1107 -669 535 -118 1256
-81 1865 96 l73 21 79 -36 c373 -171 1088 -248 2023 -219 413 13 536 20 929
53 l257 22 68 -45 c89 -59 130 -79 234 -115 132 -47 208 -58 380 -57 214 1
393 38 595 123 l90 38 185 6 c370 11 695 90 1015 246 468 229 866 628 1098
1102 l62 127 152 40 c365 98 685 249 942 447 124 95 306 282 394 405 159 224
278 528 303 776 5 48 14 78 30 99 95 128 201 392 258 648 184 821 59 1681
-317 2180 -195 258 -479 448 -772 514 -101 23 -325 23 -433 -1 -271 -58 -520
-198 -754 -425 l-98 -94 -10 27 c-5 15 -13 39 -17 54 -24 100 -194 460 -339
718 -40 72 -74 136 -76 142 -2 6 33 32 77 59 264 159 533 433 704 717 137 225
253 507 305 739 l6 27 88 -44 c178 -89 304 -139 356 -139 42 -1 52 3 77 31 25
28 29 40 29 92 0 51 -4 64 -30 93 -60 69 -232 134 -403 152 l-67 7 7 97 c12
143 8 542 -7 739 -7 95 -11 175 -9 176 2 2 78 13 169 25 199 25 311 52 365 89
36 25 40 33 43 74 3 40 -1 51 -27 80 -28 32 -33 33 -113 36 -118 5 -207 -13
-496 -99 -9 -3 -21 24 -37 88 -53 201 -220 542 -432 880 l-63 102 34 133 c70
267 99 503 99 808 1 238 -13 401 -54 625 -95 529 -305 943 -537 1061 -53 27
-67 29 -191 33 -277 7 -671 -34 -946 -97 -373 -87 -741 -237 -989 -403 l-91
-61 -60 22 c-585 210 -1147 310 -1749 310 -550 0 -1048 -82 -1506 -247 -69
-25 -136 -51 -149 -58 -22 -11 -32 -8 -99 32 -455 269 -1058 458 -1572 493
-160 11 -203 11 -335 0z m435 -191 c326 -49 738 -182 1174 -380 104 -47 134
-65 120 -70 -10 -4 -59 -21 -109 -39 -277 -99 -655 -364 -1028 -720 -61 -59
-112 -99 -116 -94 -5 5 -38 72 -74 149 -69 148 -102 218 -242 515 -131 277
-295 630 -295 635 0 2 14 6 30 10 130 28 324 26 540 -6z m7105 -29 c61 0 116
-4 123 -9 10 -6 -29 -80 -156 -297 -93 -159 -287 -490 -430 -736 -144 -246
-262 -449 -262 -451 0 -2 27 -21 61 -42 230 -142 572 -442 804 -705 317 -360
580 -791 738 -1210 116 -308 161 -697 122 -1062 -122 -1149 -908 -1927 -2260
-2236 -190 -44 -189 -44 -455 -47 -235 -3 -449 -18 -724 -51 -71 -8 -129 -14
-130 -12 -56 102 -191 252 -292 324 -82 58 -232 129 -330 155 -102 26 -337 37
-455 19 -197 -28 -405 -97 -629 -208 l-114 -57 -281 -1 c-214 0 -306 -5 -390
-18 -302 -48 -464 -114 -594 -244 l-75 -73 -85 6 c-520 37 -976 157 -1392 366
-291 145 -513 305 -731 526 -301 304 -457 563 -597 997 -141 434 -172 906 -86
1293 l5 22 65 -30 c119 -56 217 -47 269 24 20 27 20 28 1 64 -25 46 -114 104
-194 127 l-60 17 21 57 c86 232 267 575 455 862 591 900 1394 1583 2373 2017
438 195 972 353 1380 409 179 24 579 29 790 10 500 -46 979 -154 1457 -328
l111 -40 64 53 c292 244 738 419 1228 484 140 19 418 35 495 29 28 -2 100 -4
160 -4z m-7628 -550 c90 -195 163 -358 163 -362 0 -4 -19 -12 -42 -18 -132
-33 -245 -89 -317 -155 -115 -105 -121 -267 -14 -377 l37 -37 -66 -61 c-85
-77 -118 -141 -118 -224 0 -89 16 -135 64 -181 22 -22 49 -44 58 -50 15 -9 5
-25 -74 -124 -80 -100 -92 -112 -99 -94 -4 12 -16 95 -26 185 -22 204 -26 802
-5 968 45 366 110 617 219 845 31 66 38 74 46 58 6 -10 84 -178 174 -373z
m7926 270 c190 -464 266 -1078 202 -1628 -15 -126 -60 -380 -68 -389 -3 -2
-25 24 -50 59 -24 35 -75 92 -112 128 -37 35 -64 65 -59 67 127 43 195 246
128 381 -14 28 -49 73 -78 100 l-53 48 42 46 c50 55 69 115 68 208 -2 79 -12
108 -57 158 -45 50 -135 91 -303 139 -73 21 -133 42 -133 47 0 8 360 640 407
715 8 13 19 19 23 15 5 -5 24 -47 43 -94z m-434 -786 c212 -31 291 -94 291
-234 0 -41 -4 -48 -57 -100 -32 -30 -87 -70 -122 -89 l-64 -34 37 -21 c127
-70 237 -171 252 -231 10 -38 -25 -96 -80 -132 -26 -18 -54 -33 -61 -33 -19 0
-520 529 -520 549 0 26 188 341 203 341 8 0 62 -7 121 -16z m-7161 -169 l82
-165 -248 -257 c-136 -142 -252 -259 -259 -261 -23 -6 -85 31 -104 62 -22 37
-25 96 -5 135 22 42 93 102 190 162 l88 53 -48 41 c-118 97 -159 163 -144 229
15 67 73 111 186 140 63 16 101 22 149 25 29 1 33 -4 113 -164z m3969 -5309
c119 -32 194 -91 236 -185 29 -66 37 -282 12 -366 -20 -69 -63 -118 -119 -133
-46 -13 -132 0 -188 29 -38 19 -38 20 -23 49 39 75 55 220 35 308 -24 101 -96
202 -192 266 -26 18 -45 36 -41 39 12 13 227 7 280 -7z m-387 -40 c0 -62 13
-91 66 -142 84 -83 118 -208 79 -300 l-15 -35 -61 49 c-79 64 -241 156 -399
225 -69 30 -135 58 -148 62 -33 10 -24 24 45 71 99 68 242 112 371 113 l62 1
0 -44z m-3894 -42 c135 -89 331 -183 496 -238 75 -25 145 -46 155 -46 30 0 2
-17 -82 -50 -101 -39 -316 -142 -311 -147 2 -3 40 2 83 11 253 50 630 82 858
72 212 -9 443 -45 547 -85 l26 -10 -34 -68 c-52 -105 -76 -209 -75 -333 0
-189 55 -336 203 -543 202 -281 432 -525 671 -711 101 -78 125 -101 116 -112
-6 -7 -54 -42 -107 -77 -532 -353 -1191 -530 -1785 -478 -708 63 -1261 544
-1404 1221 -28 133 -25 469 5 610 52 237 158 495 297 720 50 79 230 330 239
330 1 0 47 -30 102 -66z m7537 -67 c500 -822 844 -1832 947 -2774 56 -515 50
-982 -15 -1370 -132 -776 -408 -1369 -835 -1792 -325 -322 -758 -537 -1185
-590 -43 -5 -82 -8 -86 -6 -3 3 13 42 37 89 112 216 193 494 224 771 15 132
12 388 -5 517 -36 276 -133 515 -279 689 -148 177 -334 289 -591 355 -101 26
-124 29 -275 28 -144 -1 -178 -5 -263 -27 -116 -31 -282 -108 -376 -174 -134
-95 -295 -270 -385 -420 -97 -162 -169 -365 -213 -598 -21 -112 -29 -420 -14
-539 31 -241 127 -482 257 -641 42 -52 43 -55 21 -60 -79 -17 -609 -38 -997
-38 -654 0 -1088 35 -1546 124 -366 71 -633 177 -873 347 -283 200 -529 509
-652 817 -17 44 -34 82 -36 85 -3 3 -3 -40 0 -95 21 -378 272 -759 686 -1043
87 -60 101 -53 -164 -82 -940 -100 -1358 -84 -1737 65 -434 172 -723 472 -943
979 -44 102 -115 298 -115 319 0 5 23 -11 50 -36 88 -80 192 -116 230 -82 41
38 20 116 -47 175 -37 33 -153 92 -206 105 -27 7 -27 7 -27 99 0 112 18 185
71 295 59 120 171 232 289 289 273 132 605 77 952 -159 48 -33 100 -62 116
-65 39 -8 56 15 49 65 -14 110 -105 205 -270 286 -106 52 -311 115 -373 115
-35 0 -30 16 14 43 109 69 244 97 501 104 226 6 224 5 110 63 -104 53 -166 64
-374 66 l-190 2 -18 128 c-23 171 -34 693 -18 893 15 186 45 416 76 583 27
140 77 356 93 398 l10 25 7 -30 c17 -78 41 -140 95 -252 169 -346 455 -652
770 -823 171 -92 336 -144 555 -174 598 -81 1279 50 1881 364 134 69 271 151
358 213 l48 35 112 -73 c779 -510 1627 -699 2416 -539 286 58 522 162 584 257
15 22 16 30 6 42 -18 21 -121 19 -228 -4 -276 -62 -670 -96 -997 -88 -748 20
-1281 222 -1915 727 -91 73 -216 168 -277 212 -468 335 -765 823 -704 1153 34
184 192 345 428 437 159 62 477 98 687 79 344 -33 542 -117 964 -414 147 -103
203 -131 302 -153 97 -21 324 -24 400 -5 179 45 322 166 377 320 l16 47 401 0
c423 0 559 8 852 49 449 63 868 206 1079 368 39 30 73 52 77 50 4 -2 40 -58
81 -126z m-2834 -39 c160 -157 187 -281 88 -393 -38 -44 -128 -105 -154 -105
-21 0 -15 38 12 84 76 130 77 275 1 424 -15 29 -23 52 -18 52 4 0 37 -28 71
-62z m4665 -377 c128 -33 291 -106 417 -189 117 -77 233 -239 331 -464 251
-579 314 -1260 172 -1867 -194 -828 -754 -1521 -1643 -2031 -77 -44 -144 -80
-150 -80 -6 0 -5 17 5 48 76 251 154 692 191 1087 24 263 24 837 0 1090 -60
617 -193 1181 -400 1695 l-55 135 24 40 c79 137 242 316 365 402 164 115 308
161 510 162 98 1 136 -4 233 -28z m-3690 -3860 c272 -81 493 -277 636 -561 71
-142 110 -273 145 -483 12 -73 6 -314 -10 -418 -67 -420 -310 -776 -637 -928
-133 -63 -192 -75 -358 -75 -172 0 -228 12 -375 84 -208 101 -373 273 -491
510 -165 332 -193 769 -71 1125 143 420 432 696 807 769 62 12 286 -2 354 -23z"/>
<path d="M9515 16739 c-347 -44 -653 -264 -736 -529 -105 -335 99 -676 495
-825 266 -100 593 -92 858 21 234 100 409 288 459 494 7 30 13 93 13 140 -3
279 -204 519 -540 646 -142 53 -369 75 -549 53z m188 -310 c21 -5 52 -23 70
-38 63 -57 28 -143 -70 -170 -114 -32 -237 21 -237 103 0 83 122 137 237 105z"/>
<path d="M13715 16739 c-166 -24 -344 -94 -470 -183 -191 -137 -307 -361 -291
-561 28 -355 369 -635 819 -675 496 -43 938 214 1023 596 83 376 -241 740
-730 819 -99 16 -255 18 -351 4z m317 -326 c18 -10 42 -35 52 -54 19 -36 19
-36 0 -70 -54 -92 -220 -105 -301 -24 -20 20 -33 43 -33 59 0 34 46 83 95 102
51 18 144 12 187 -13z"/>
<path d="M11497 15369 c-88 -21 -141 -65 -153 -129 -15 -71 23 -120 152 -196
52 -30 94 -60 94 -66 0 -17 -105 -140 -157 -185 -120 -101 -225 -147 -335
-148 -107 0 -142 37 -161 172 -9 65 -14 77 -44 103 -133 117 -288 -116 -197
-298 30 -61 123 -150 190 -181 53 -26 161 -51 214 -50 129 0 305 62 449 156
53 35 106 66 119 70 16 4 44 -9 105 -50 269 -180 507 -220 706 -120 107 54
191 164 207 269 9 65 -20 150 -67 197 -38 38 -41 39 -91 35 -73 -7 -103 -42
-112 -129 -9 -79 -38 -142 -72 -158 -74 -34 -185 -18 -296 41 -65 35 -188 144
-250 222 -37 46 -38 50 -22 67 9 10 49 36 89 58 96 53 145 108 145 162 0 122
-97 170 -340 168 -74 -1 -152 -5 -173 -10z"/>
<path d="M7018 8244 c-48 -25 -73 -87 -73 -179 0 -68 4 -88 29 -134 41 -78
150 -186 205 -202 36 -11 47 -11 69 2 61 34 55 70 -28 164 -79 89 -116 167
-132 275 -14 92 -22 101 -70 74z"/>
<path d="M6479 8033 c-18 -47 -6 -201 20 -251 45 -88 153 -163 277 -192 42 -9
58 -9 85 3 54 22 65 41 47 80 -12 24 -36 44 -97 76 -91 50 -152 105 -218 200
-54 77 -83 111 -95 111 -5 0 -13 -12 -19 -27z"/>
<path d="M7090 7387 c-257 -72 -309 -405 -99 -640 143 -161 339 -190 484 -72
95 77 129 215 87 352 -75 243 -294 410 -472 360z m148 -156 c89 -45 186 -191
199 -299 15 -133 -113 -222 -242 -168 -84 36 -179 175 -192 285 -17 145 111
245 235 182z"/>
<path d="M13804 8109 c-15 -16 -20 -43 -25 -123 -8 -118 -30 -184 -94 -282
-25 -37 -45 -76 -45 -86 0 -33 23 -67 55 -83 95 -44 175 16 220 165 19 63 31
264 21 335 -13 83 -86 125 -132 74z"/>
<path d="M13271 7955 c-51 -46 -71 -105 -71 -209 0 -126 33 -236 76 -253 24
-9 63 6 80 32 38 58 71 279 55 374 -15 95 -72 117 -140 56z"/>
<path d="M14305 7826 c-39 -17 -59 -47 -74 -113 -10 -39 -28 -70 -77 -129 -72
-87 -82 -128 -43 -178 28 -35 72 -34 132 4 81 51 166 216 167 322 0 60 -7 76
-41 93 -33 18 -26 17 -64 1z"/>
<path d="M13576 7300 c-226 -57 -391 -329 -373 -615 7 -115 27 -178 80 -257
83 -124 203 -184 352 -176 107 6 189 44 262 121 165 174 221 510 121 724 -34
73 -121 155 -193 182 -68 26 -188 36 -249 21z m199 -203 c23 -13 52 -42 69
-71 28 -44 31 -58 34 -150 12 -323 -186 -534 -380 -406 -84 56 -125 178 -108
318 18 141 96 273 185 313 58 27 149 25 200 -4z"/>
</g>
</svg>
