<?xml version="1.0" standalone="no"?>
<!DOCTYPE svg PUBLIC "-//W3C//DTD SVG 20010904//EN"
 "http://www.w3.org/TR/2001/REC-SVG-20010904/DTD/svg10.dtd">
<svg version="1.0" xmlns="http://www.w3.org/2000/svg"
 width="501.000000pt" height="536.000000pt" viewBox="0 0 501.000000 536.000000"
 preserveAspectRatio="xMidYMid meet">

<g transform="translate(0.000000,536.000000) scale(0.100000,-0.100000)"
fill="#000000" stroke="none">
<path d="M3438 5310 c-155 -45 -400 -164 -563 -275 l-90 -61 -60 18 c-170 51
-245 62 -420 61 -183 0 -294 -18 -436 -69 -37 -13 -72 -24 -80 -24 -7 0 -47
22 -88 50 -107 69 -344 181 -491 232 -111 38 -135 42 -217 43 -87 0 -93 -1
-130 -31 -53 -43 -95 -116 -136 -242 -84 -253 -106 -546 -61 -820 l16 -93 -50
-77 c-27 -42 -58 -95 -69 -117 -34 -66 -91 -255 -103 -341 l-12 -81 -143 5
-144 5 -6 -26 c-4 -14 -4 -30 -1 -36 9 -14 66 -28 161 -41 145 -19 135 -14
135 -78 0 -31 6 -83 14 -115 10 -43 11 -59 2 -62 -6 -1 -57 -15 -114 -30 -112
-30 -155 -55 -150 -88 5 -39 59 -41 189 -9 l117 29 29 -66 c84 -189 265 -385
480 -520 l52 -33 -41 -81 c-101 -202 -232 -565 -302 -842 -84 -328 -97 -624
-35 -808 51 -153 186 -306 333 -377 171 -83 457 -124 590 -86 l58 17 43 -40
c86 -79 182 -108 332 -97 109 8 199 33 268 77 47 30 51 31 75 15 108 -69 243
-102 374 -91 85 7 152 28 235 74 51 27 53 28 104 14 73 -20 258 -11 357 17
172 48 399 188 493 301 56 69 105 157 129 231 l22 68 95 30 c288 90 526 337
645 669 53 148 70 244 70 406 0 138 -2 156 -27 228 -47 133 -125 235 -214 277
-51 24 -147 27 -197 6 -55 -23 -117 -86 -148 -151 -37 -80 -38 -173 -3 -300
53 -190 41 -354 -36 -511 -37 -76 -149 -224 -169 -224 -5 0 -12 10 -14 23 -3
12 -12 56 -21 97 -9 41 -36 140 -60 220 -24 80 -61 199 -81 264 -20 65 -49
151 -66 190 -16 39 -42 106 -59 150 -16 43 -56 132 -89 197 -33 66 -60 121
-60 123 0 2 19 16 42 31 68 45 223 201 276 278 53 77 112 188 131 250 14 43
20 44 114 22 129 -30 199 -18 183 32 -8 26 -62 49 -166 72 -73 15 -85 21 -82
37 2 10 6 66 10 124 l7 105 93 17 c124 23 160 35 173 61 10 17 8 24 -11 39
-27 22 -48 22 -169 3 -52 -9 -95 -14 -96 -13 -1 2 -10 41 -20 88 -26 132 -86
274 -170 401 l-74 112 10 126 c25 304 -44 705 -156 897 -77 133 -170 168 -327
124z m179 -109 c64 -39 153 -292 189 -533 15 -103 18 -398 4 -411 -3 -3 -56
43 -119 103 -126 122 -309 268 -407 325 -35 21 -64 41 -64 45 0 3 26 42 58 86
73 98 201 220 292 276 82 50 92 74 28 64 -89 -14 -245 -119 -349 -235 -56 -64
-139 -177 -139 -193 0 -3 30 -25 68 -49 319 -201 662 -553 796 -817 35 -69 83
-214 91 -278 l6 -51 -38 -6 c-21 -4 -58 -17 -83 -29 -38 -20 -45 -27 -45 -53
0 -28 3 -30 35 -30 19 1 59 5 89 9 l54 8 -7 -77 c-13 -138 -9 -133 -69 -122
-58 10 -103 -2 -114 -29 -8 -22 18 -41 85 -60 60 -18 59 -14 16 -112 -92 -210
-344 -444 -612 -568 -131 -62 -577 -224 -613 -224 -4 0 -20 -5 -35 -10 -19 -8
-24 -14 -17 -21 15 -15 267 15 389 47 132 34 269 86 384 145 52 26 98 45 101
41 4 -4 40 -83 80 -177 121 -285 287 -807 324 -1020 23 -130 23 -317 1 -409
-36 -152 -141 -291 -293 -393 -75 -50 -234 -122 -270 -123 -21 0 -15 52 12 95
13 22 25 46 25 53 0 21 -47 13 -79 -14 -40 -33 -51 -55 -60 -113 l-6 -46 -68
-3 -67 -3 0 37 c0 27 17 67 61 145 66 117 73 122 170 135 27 4 52 10 54 14 7
11 -51 30 -91 30 -19 0 -34 3 -34 7 0 3 18 58 40 122 21 64 49 152 60 197 24
91 66 151 159 226 52 42 52 43 26 46 -15 2 -50 -8 -78 -22 -28 -14 -53 -23
-55 -22 -2 2 2 66 9 143 16 189 1 284 -35 215 -8 -15 -44 -162 -81 -325 -71
-319 -109 -444 -184 -603 -95 -198 -191 -323 -292 -375 -48 -24 -144 -50 -153
-41 -21 21 6 122 45 166 37 43 38 66 2 66 -71 0 -131 -77 -140 -181 l-6 -57
-36 5 c-70 11 -86 24 -89 73 -3 46 -2 47 64 137 18 26 11 43 -17 43 -59 0
-121 -74 -135 -159 l-7 -44 -19 22 c-24 31 -24 111 2 185 25 74 35 131 62 361
37 320 30 755 -12 755 -14 0 -18 -27 -35 -230 -15 -184 -61 -604 -71 -649 -3
-13 -7 -22 -9 -19 -9 8 -46 323 -71 593 -14 160 -30 294 -35 299 -5 5 -14 -3
-21 -20 -10 -21 -13 -104 -13 -319 1 -323 14 -474 66 -728 25 -123 28 -153 19
-182 -20 -62 -36 -62 -48 1 -14 67 -40 106 -86 128 -70 33 -81 10 -31 -63 26
-40 35 -63 35 -95 0 -56 -16 -74 -72 -85 -42 -7 -48 -6 -48 8 0 45 -34 126
-68 163 -42 45 -112 65 -112 33 0 -9 13 -34 30 -55 36 -46 50 -81 50 -126 0
-35 0 -35 -37 -28 -93 17 -150 62 -227 178 -131 195 -222 437 -328 866 -67
272 -88 340 -107 340 -5 0 -11 -9 -14 -21 -6 -21 9 -200 19 -231 5 -18 4 -18
-31 -3 -42 17 -85 20 -85 5 0 -5 4 -10 8 -10 15 0 123 -115 127 -135 33 -165
65 -293 99 -398 l41 -127 -35 -1 c-45 -1 -112 -21 -117 -35 -2 -7 21 -14 61
-18 116 -12 123 -17 174 -125 49 -105 62 -163 41 -177 -7 -4 -39 -8 -71 -8
-52 -1 -58 1 -58 19 0 71 -71 175 -119 175 -26 0 -26 -16 -1 -71 19 -43 27
-109 13 -109 -28 0 -172 49 -238 80 -156 74 -268 228 -301 412 -49 267 58 769
284 1335 68 170 89 213 101 213 4 0 38 -13 73 -30 115 -52 326 -111 478 -135
105 -16 296 -20 304 -6 3 5 -56 23 -132 41 -255 59 -360 90 -505 150 -80 32
-167 70 -194 84 -158 80 -377 262 -468 391 -42 59 -105 175 -105 194 0 5 15
12 32 16 47 10 78 32 78 55 0 28 -41 42 -100 34 l-48 -6 -11 68 c-16 101 -17
129 -6 127 90 -14 122 -14 134 1 7 8 10 24 6 34 -6 21 -90 62 -126 62 -21 0
-22 3 -16 68 17 178 106 385 248 577 136 184 433 466 618 586 l24 15 -24 49
c-29 58 -158 193 -249 260 -82 60 -195 115 -237 115 -17 0 -34 4 -37 9 -10 15
53 61 84 61 39 0 185 -43 308 -92 83 -32 383 -178 401 -194 3 -2 -8 -17 -22
-32 -15 -16 -27 -33 -27 -39 0 -12 19 -8 215 50 170 51 277 67 443 67 174 0
302 -18 493 -70 81 -22 154 -40 163 -40 28 0 18 19 -25 47 l-41 27 23 19 c83
67 318 186 489 248 119 43 171 48 217 20z m-2678 -131 c80 -43 179 -120 265
-205 66 -67 136 -157 136 -176 0 -4 -24 -22 -52 -40 -101 -63 -224 -164 -344
-284 -67 -66 -131 -133 -143 -149 -12 -16 -24 -26 -27 -23 -13 13 -17 415 -4
513 17 142 86 394 107 394 3 0 31 -14 62 -30z m3727 -2776 c54 -44 101 -128
125 -224 51 -203 -12 -512 -153 -740 -94 -154 -269 -304 -431 -371 -38 -16
-73 -29 -76 -29 -3 0 -7 43 -8 95 l-2 95 62 50 c121 98 214 241 259 397 32
109 31 274 -1 393 -35 132 -40 171 -30 224 24 130 159 188 255 110z"/>
<path d="M2930 4081 c-146 -48 -230 -161 -230 -309 0 -263 334 -408 545 -237
33 27 61 63 83 106 32 60 34 69 30 144 -5 93 -34 158 -95 217 -66 63 -115 82
-218 85 -49 1 -101 -1 -115 -6z m160 -131 c24 -24 26 -72 4 -94 -8 -9 -18 -16
-22 -17 -4 0 -17 -2 -30 -5 -27 -5 -72 35 -72 64 0 59 79 93 120 52z"/>
<path d="M1383 4046 c-140 -46 -228 -168 -225 -314 1 -81 36 -156 98 -211 147
-129 340 -125 471 11 149 153 97 403 -103 495 -67 30 -179 39 -241 19z m142
-131 c47 -46 19 -115 -47 -115 -97 0 -88 133 10 139 7 1 24 -10 37 -24z"/>
<path d="M2225 3523 c-107 -23 -120 -90 -29 -152 27 -19 33 -28 28 -45 -20
-63 -81 -109 -146 -109 -41 0 -71 20 -91 62 -16 32 -30 36 -52 15 -12 -13 -15
-27 -11 -52 16 -103 162 -147 271 -82 28 17 57 35 66 41 12 9 25 4 62 -22 37
-26 59 -34 107 -37 78 -6 103 1 150 44 48 43 62 94 35 124 -22 24 -47 13 -64
-28 -36 -86 -188 -66 -235 31 l-15 32 46 40 c48 42 59 79 33 110 -22 27 -99
41 -155 28z"/>
</g>
</svg>
